# xmcd
# 
# Track frame offsets:
#     150
#     9915
#     27235
#     36660
#     51855
#     53380
#     67287
#     89107
#     92940
#     114215
# 
# Disc length: 1578
# 
# Revision: 10
# Processed by: cddbd v1.5.2PL0 Copyright (c) Steve Scherf et al.
# Submitted via: fre:ac v1.0.17
# 
DISCID=8406280a
DTITLE=羅大佑 - 昨日至今
DYEAR=2002
DGENRE=Pop
TTITLE0=仿莫札特奏鳴練習曲
TTITLE1=大家無輸贏
TTITLE2=吉他練習曲
TTITLE3=光陰的故事
TTITLE4=鹿港小鎮音樂盒
TTITLE5=仿蕭邦華爾滋練習曲
TTITLE6=初戀的少年家
TTITLE7=閃亮的日子(風琴演奏)
TTITLE8=真的假的
TTITLE9=童年(鋼琴片尾曲)
EXTD=
EXTT0=
EXTT1=
EXTT2=
EXTT3=
EXTT4=
EXTT5=
EXTT6=
EXTT7=
EXTT8=
EXTT9=
PLAYORDER=
